<svg xmlns="http://www.w3.org/2000/svg" width="19.028" height="19" viewBox="0 0 19.028 19">
  <g id="Group_913" data-name="Group 913" transform="translate(170.033 222.987)">
    <g id="Group_909" data-name="Group 909" transform="translate(-403 -777.001)">
      <g id="Khata_book_stroke_-01" data-name="Khata book (stroke)-01" transform="translate(233.467 554.514)">
        <path id="Path_909" data-name="Path 909" d="M267.8,196.349H252.682c-.2,0-.415-.02-.616,0h-.026l.222.212V182a.387.387,0,0,1,.392-.379c.3-.009.611,0,.916,0h13.472c.1,0,.2,0,.3,0a.406.406,0,0,1,.4.449V196.2c0,.051-.005.1,0,.154.009.093-.032,0,.063-.009a.224.224,0,0,0-.222.212.218.218,0,0,0,.222.212.389.389,0,0,0,.382-.383c0-.04,0-.081,0-.122v-14.2a.831.831,0,0,0-.663-.85,2.106,2.106,0,0,0-.4-.018H252.891c-.1,0-.2,0-.3,0a.83.83,0,0,0-.776.849c0,.419,0,.838,0,1.258v13.253a.22.22,0,0,0,.222.212H265.86c.637,0,1.278.022,1.915,0h.026A.212.212,0,1,0,267.8,196.349Z" transform="translate(-250.185 -181.197)" fill="none" stroke="#5f7096" stroke-width="1"/>
        <path id="Path_910" data-name="Path 910" d="M340.379,181.675v13.281c0,.614-.023,1.233,0,1.846v.025a.223.223,0,0,0,.445,0v-13.28c0-.614.024-1.233,0-1.846v-.025a.223.223,0,0,0-.445,0Z" transform="translate(-336.109 -181.464)" fill="none" stroke="#5f7096" stroke-width="1"/>
        <path id="Path_911" data-name="Path 911" d="M196.974,326h3.164a.212.212,0,1,0,0-.423h-3.164A.212.212,0,1,0,196.974,326Z" transform="translate(-196.759 -321.504)" fill="none" stroke="#5f7096" stroke-width="1"/>
        <path id="Path_912" data-name="Path 912" d="M196.974,422.833h3.164a.212.212,0,1,0,0-.423h-3.164A.212.212,0,1,0,196.974,422.833Z" transform="translate(-196.759 -415.601)" fill="none" stroke="#5f7096" stroke-width="1"/>
        <path id="Path_913" data-name="Path 913" d="M196.974,519.663h3.164a.212.212,0,1,0,0-.423h-3.164A.212.212,0,1,0,196.974,519.663Z" transform="translate(-196.759 -509.697)" fill="none" stroke="#5f7096" stroke-width="1"/>
        <path id="Path_914" data-name="Path 914" d="M196.974,616.493h3.164a.212.212,0,1,0,0-.423h-3.164A.212.212,0,1,0,196.974,616.493Z" transform="translate(-196.759 -603.794)" fill="none" stroke="#5f7096" stroke-width="1"/>
        <path id="Path_915" data-name="Path 915" d="M251.767,712.753v.988a1.636,1.636,0,0,0,.211,1.059,2.221,2.221,0,0,0,1.871.714h12.974a4.62,4.62,0,0,0,.749-.049c.214-.036.486-.12.54-.35.079-.339-.356-.557-.567-.756-.024-.022-.046-.045-.068-.069-.008-.008-.038-.05-.006-.006a.456.456,0,0,1-.027-.038c-.013-.023-.027-.045-.038-.068.023.048-.013-.051-.018-.072-.012-.054,0,.045,0-.012,0-.018,0-.037,0-.056a.552.552,0,0,1,0-.058c0,.01-.007.038,0-.006a1.143,1.143,0,0,1,.1-.293,4.237,4.237,0,0,1,.57-.806.212.212,0,0,0,0-.3.232.232,0,0,0-.315,0,2.665,2.665,0,0,0-.81,1.462.923.923,0,0,0,.421.732,1.745,1.745,0,0,1,.3.261c.026.033.005.024.014.01a.434.434,0,0,1,.026-.061c0,.011,0,.008-.018.013a1.01,1.01,0,0,1-.1.035,1.507,1.507,0,0,1-.194.037,5.2,5.2,0,0,1-.636.025H254.181a4.412,4.412,0,0,1-1.033-.057c-.455-.106-.934-.4-.936-.89,0-.359,0-.719,0-1.078v-.312A.223.223,0,0,0,251.767,712.753Z" transform="translate(-250.135 -697.515)" fill="none" stroke="#5f7096" stroke-width="1"/>
      </g>
      <path id="Path_916" data-name="Path 916" d="M494.456,350.831l-.365.554h1.03s1.014-.056,1.188.617h-1.82l-.4.536h2.284s.158,1.21-2.086,1.052l-.008.53,2.286,2.7h1.014l-2.343-2.792s1.745-.087,1.995-1.471l.748-.008.374-.585-1.114.008a1.18,1.18,0,0,0-.3-.562l1.022-.016.391-.569Z" transform="translate(-251.804 208.473)" fill="#5f7096"/>
    </g>
  </g>
</svg>
