<svg xmlns="http://www.w3.org/2000/svg" width="120.448" height="120" viewBox="0 0 120.448 120">
  <g id="customers-illustration-image" transform="translate(-259.282 -273.23)">
    <ellipse id="Ellipse_571" data-name="Ellipse 571" cx="57.207" cy="60" rx="57.207" ry="60" transform="translate(262.272 273.23)" fill="#e99797" opacity="0.21"/>
    <path id="Path_7059" data-name="Path 7059" d="M727.767,442.94l-1.887,2.392h4.153Z" transform="translate(-352.863 -126.38)" fill="#2c3d60"/>
    <ellipse id="Ellipse_572" data-name="Ellipse 572" cx="0.869" cy="0.911" rx="0.869" ry="0.911" transform="translate(269.648 339.611)" fill="#acdbc9"/>
    <ellipse id="Ellipse_573" data-name="Ellipse 573" cx="2.193" cy="2.3" rx="2.193" ry="2.3" transform="translate(375.093 330.93)" fill="none" stroke="#e99797" stroke-miterlimit="10" stroke-width="0.5"/>
    <ellipse id="Ellipse_574" data-name="Ellipse 574" cx="0.869" cy="0.911" rx="0.869" ry="0.911" transform="translate(373.954 350.334)" fill="#acdbc9"/>
    <ellipse id="Ellipse_575" data-name="Ellipse 575" cx="1.738" cy="1.823" rx="1.738" ry="1.823" transform="translate(261.133 352.913)" fill="#acdbc9"/>
    <ellipse id="Ellipse_576" data-name="Ellipse 576" cx="1.738" cy="1.823" rx="1.738" ry="1.823" transform="translate(326.882 280.764)" fill="#acdbc9"/>
    <ellipse id="Ellipse_577" data-name="Ellipse 577" cx="0.869" cy="0.911" rx="0.869" ry="0.911" transform="translate(279.176 291.894)" fill="#2c3d60"/>
    <ellipse id="Ellipse_578" data-name="Ellipse 578" cx="0.869" cy="0.911" rx="0.869" ry="0.911" transform="translate(343.311 280.764)" fill="#2c3d60"/>
    <ellipse id="Ellipse_579" data-name="Ellipse 579" cx="0.869" cy="0.911" rx="0.869" ry="0.911" transform="translate(276.24 320.301)" fill="#e99797"/>
    <ellipse id="Ellipse_580" data-name="Ellipse 580" cx="0.869" cy="0.911" rx="0.869" ry="0.911" transform="translate(365.466 299.847)" fill="#e99797"/>
    <ellipse id="Ellipse_581" data-name="Ellipse 581" cx="0.869" cy="0.911" rx="0.869" ry="0.911" transform="translate(316.46 274.872)" fill="#e99797"/>
    <ellipse id="Ellipse_582" data-name="Ellipse 582" cx="0.869" cy="0.911" rx="0.869" ry="0.911" transform="translate(365.466 315.649)" fill="#acdbc9"/>
    <path id="Path_7060" data-name="Path 7060" d="M259.48,489.5l2.636-3.409a.929.929,0,0,1,1.482,0l2.663,3.414" transform="translate(0 -158.241)" fill="none" stroke="#e99797" stroke-miterlimit="10" stroke-width="0.5"/>
    <path id="Path_7084" data-name="Path 7084" d="M0,0,8.176-.1,8.154,1.721l-8.176.1Z" transform="translate(267.011 307.38) rotate(-15.709)" fill="#acdbc9"/>
    <path id="Path_7061" data-name="Path 7061" d="M527.444,463.68H542.78c8.9,0,16.109,7.564,16.108,16.894v11.461a1.011,1.011,0,0,1-.986,1.034H513.826a1.011,1.011,0,0,1-.986-1.034V479c0-8.456,6.536-15.314,14.6-15.316Z" transform="translate(-191.684 -141.825)" fill="#fff"/>
    <path id="Path_7062" data-name="Path 7062" d="M527.078,463.68h16.836a11.686,11.686,0,0,1,11.4,11.954V493.07H512.84V478.614C512.84,470.366,519.215,463.68,527.078,463.68Z" transform="translate(-191.684 -141.825)" fill="#acdbc9"/>
    <path id="Path_7063" data-name="Path 7063" d="M546.163,350.541l.153,1.951a4.811,4.811,0,0,1-1.816,4.287c-2.089,1.516-.514,3.546.991,4.871a17.3,17.3,0,0,1,3.089,3.679l.124.189a10.778,10.778,0,0,0,18.16.227l.141-.212a18.572,18.572,0,0,1,4.138-4.46c2.137-1.662,1.217-3.352.017-4.506a5.779,5.779,0,0,1-1.641-4.488c.54-12.166-12.449-8.326-12.449-8.326-5.645,1.149-8.863.393-10.672-.656a1.637,1.637,0,0,0-1.735.1,1.82,1.82,0,0,0-.753,1.643,8.888,8.888,0,0,0,3.079,6.49,8.29,8.29,0,0,0,2.332,1.276" transform="translate(-214.876 -51.876)" fill="#fff"/>
    <path id="Path_7064" data-name="Path 7064" d="M544.7,357.022l.141,1.8a4.506,4.506,0,0,1-1.648,3.965c-1.9,1.4-.467,3.278.9,4.5a16,16,0,0,1,2.807,3.4c.037.059.073.117.112.173a9.69,9.69,0,0,0,16.488.209l.136-.184a17.009,17.009,0,0,1,3.768-4.126c1.947-1.532,1.105-3.1.015-4.167a5.416,5.416,0,0,1-1.49-4.151c.487-11.25-11.3-7.7-11.3-7.7-5.112,1.065-8.033.365-9.686-.605a1.558,1.558,0,0,0-2.259,1.606c.151,2.017,1.982,3.51,2.8,6,.243.73,1.28.878,2.115,1.19" transform="translate(-213.956 -57.129)" fill="#acdbc9"/>
    <path id="Path_7065" data-name="Path 7065" d="M577.79,464.1,585,471.2l7.42-7.516Z" transform="translate(-240.823 -141.825)" fill="#fff"/>
    <path id="Path_7066" data-name="Path 7066" d="M545,349.591l.156,1.991a4.912,4.912,0,0,1-1.853,4.374c-2.132,1.55-.523,3.62,1.01,4.971a17.75,17.75,0,0,1,3.165,3.756c.041.064.083.13.127.194a11,11,0,0,0,18.533.23l.144-.214a18.9,18.9,0,0,1,4.236-4.552c2.191-1.7,1.242-3.421.017-4.6a5.907,5.907,0,0,1-1.675-4.581c.553-12.414-12.7-8.495-12.7-8.495-5.76,1.172-9.044.4-10.889-.669a1.665,1.665,0,0,0-1.773.092,1.851,1.851,0,0,0-.766,1.68,9.064,9.064,0,0,0,3.143,6.625,8.47,8.47,0,0,0,2.378,1.313" transform="translate(-213.956 -51.054)" fill="none" stroke="#2c3d60" stroke-miterlimit="10" stroke-width="0.5"/>
    <path id="Path_7067" data-name="Path 7067" d="M512.84,493.047V479.059c0-8.511,6.579-15.41,14.694-15.409H542.14c9.25-.006,16.751,7.859,16.748,17.561v7.705" transform="translate(-191.684 -141.802)" fill="none" stroke="#2c3d60" stroke-miterlimit="10" stroke-width="0.5"/>
    <line id="Line_143" data-name="Line 143" y1="13.343" transform="translate(331.456 335.359)" fill="none" stroke="#2c3d60" stroke-miterlimit="10" stroke-width="0.5"/>
    <line id="Line_144" data-name="Line 144" y2="10.325" transform="translate(356.449 335.359)" fill="none" stroke="#2c3d60" stroke-miterlimit="10" stroke-width="0.5"/>
    <path id="Path_7068" data-name="Path 7068" d="M591.909,463.68l-8.026,8.1-7.573-8.1" transform="translate(-239.703 -141.825)" fill="none" stroke="#2c3d60" stroke-miterlimit="10" stroke-width="0.5"/>
    <path id="Path_7069" data-name="Path 7069" d="M348.933,461.138h18.111c11.174,0,20.232,9.5,20.232,21.219v14.127H331.9V479c0-9.871,7.629-17.872,17.04-17.872Z" transform="translate(-54.791 -139.926)" fill="#fff"/>
    <path id="Path_7070" data-name="Path 7070" d="M349.055,461.16h20.161c7.6,0,13.761,6.462,13.761,14.433V496.5H331.9V479.142C331.905,469.209,339.584,461.16,349.055,461.16Z" transform="translate(-54.791 -139.948)" fill="#acdbc9"/>
    <path id="Path_7071" data-name="Path 7071" d="M372.007,325.092l.187,2.392A5.725,5.725,0,0,1,370,332.59c-2.517,1.828-.613,4.272,1.2,5.873a20.777,20.777,0,0,1,3.707,4.419l.195.3a13.006,13.006,0,0,0,21.816.168l.1-.158a20.346,20.346,0,0,1,4.869-5.3c2.792-2.042,1.668-4.134.192-5.553a6.91,6.91,0,0,1-1.974-5.333c.7-14.707-14.971-10.075-14.971-10.075-6.787,1.384-10.657.475-12.834-.789a1.959,1.959,0,0,0-2.085.1,2.177,2.177,0,0,0-.909,1.97,10.716,10.716,0,0,0,3.707,7.825,10.028,10.028,0,0,0,2.8,1.55" transform="translate(-82.701 -31.768)" fill="#fff"/>
    <path id="Path_7072" data-name="Path 7072" d="M370.225,332.829l.168,2.17a5.4,5.4,0,0,1-1.982,4.767c-2.281,1.688-.562,3.942,1.078,5.415a19.219,19.219,0,0,1,3.374,4.085l.229.357a11.681,11.681,0,0,0,19.557.368c.114-.169.226-.335.331-.5a20.43,20.43,0,0,1,4.53-4.958c2.335-1.849,1.329-3.73.019-5.015a6.514,6.514,0,0,1-1.792-4.991c.589-13.532-13.593-9.258-13.593-9.258-6.161,1.277-9.674.439-11.651-.728a1.872,1.872,0,0,0-2.717,1.933c.183,2.423,2.383,4.223,3.364,7.218.287.878,1.541,1.057,2.544,1.43" transform="translate(-81.581 -38.029)" fill="#acdbc9"/>
    <path id="Path_7073" data-name="Path 7073" d="M410.02,461.663l8.674,8.538,8.924-9.041Z" transform="translate(-113.894 -139.948)" fill="#fff"/>
    <path id="Path_7074" data-name="Path 7074" d="M370.588,323.955l.192,2.441a5.861,5.861,0,0,1-2.232,5.214c-2.515,1.828-.7,4.256,1.108,5.885a22.212,22.212,0,0,1,3.875,4.575c.073.115.148.23.222.34a13.271,13.271,0,0,0,22.262.171c.136-.2.263-.4.385-.59a18.059,18.059,0,0,1,4.686-4.976c2.846-2.084,1.7-4.218.195-5.666a7.054,7.054,0,0,1-2.016-5.436c.711-15.005-15.278-10.279-15.278-10.279-6.926,1.409-10.877.482-13.1-.807a2,2,0,0,0-2.128.1,2.222,2.222,0,0,0-.927,2.011,10.925,10.925,0,0,0,3.783,7.987,10.173,10.173,0,0,0,2.86,1.58" transform="translate(-81.582 -30.785)" fill="none" stroke="#2c3d60" stroke-miterlimit="10" stroke-width="0.5"/>
    <path id="Path_7075" data-name="Path 7075" d="M331.9,496.506V479.691c0-10.232,7.91-18.529,17.668-18.531h17.581c11.117,0,20.129,9.452,20.129,21.112v9.266" transform="translate(-54.791 -139.948)" fill="none" stroke="#2c3d60" stroke-miterlimit="10" stroke-width="0.5"/>
    <line id="Line_145" data-name="Line 145" y1="16.047" transform="translate(289.498 337.453)" fill="none" stroke="#2c3d60" stroke-miterlimit="10" stroke-width="0.5"/>
    <line id="Line_146" data-name="Line 146" y2="12.416" transform="translate(319.554 337.453)" fill="none" stroke="#2c3d60" stroke-miterlimit="10" stroke-width="0.5"/>
    <path id="Path_7076" data-name="Path 7076" d="M426.994,461.16l-9.655,9.743-9.109-9.743" transform="translate(-112.539 -139.948)" fill="none" stroke="#2c3d60" stroke-miterlimit="10" stroke-width="0.5"/>
    <path id="Path_7077" data-name="Path 7077" d="M374.318,596.5v29.04H332.738a11.128,11.128,0,0,1-5-1.19L300.9,610.853c-2.709-1.361-3.669-4.907-2.622-8.474l1.3-2.127c1.585-.717,3.566-1.353,5.27-.584l22.435,10.121.256-3.253a9.447,9.447,0,0,1,3.162-6.378,8.587,8.587,0,0,1,6.553-2.106l10.541,1.1S359.523,586.07,374.318,596.5Z" transform="translate(-29.043 -237.727)" fill="#fff"/>
    <path id="Path_7078" data-name="Path 7078" d="M375.606,609.577v25.7l-40.475-.094a16.139,16.139,0,0,1-6.1-1.1l-25.77-12.815c-2.709-1.361-3.569-2.535-3.688-5.814l.47-4.266c1.585-.718,1.947-2.852,6.105-1.787l22.69,10.213h0A9.449,9.449,0,0,1,332,613.24a8.588,8.588,0,0,1,6.554-2.108l10.541,1.1S360.81,599.149,375.606,609.577Z" transform="translate(-30.331 -247.468)" fill="#ea9798"/>
    <path id="Path_7079" data-name="Path 7079" d="M611.73,607.89h23.856a2.3,2.3,0,0,1,2.242,2.351V634.5a2.381,2.381,0,0,1-2.322,2.436H611.73Z" transform="translate(-266.501 -249.215)" fill="#fff"/>
    <path id="Path_7080" data-name="Path 7080" d="M611.73,619H632.6a2.3,2.3,0,0,1,2.242,2.352V642.76a2.381,2.381,0,0,1-2.322,2.436H611.73Z" transform="translate(-266.501 -257.488)" fill="#ea9798"/>
    <path id="Path_7081" data-name="Path 7081" d="M611.73,607.89h23.679a2.5,2.5,0,0,1,2.434,2.553v23.865a2.558,2.558,0,0,1-2.5,2.617H611.735V607.89Z" transform="translate(-266.501 -249.215)" fill="none" stroke="#2c3d60" stroke-miterlimit="10" stroke-width="0.5"/>
    <path id="Path_7082" data-name="Path 7082" d="M374.423,645.2H337.589a36.317,36.317,0,0,1-16.858-4.146l-18.61-9.759a7.487,7.487,0,0,1-3.218-10.08h0a4.133,4.133,0,0,1,5.319-1.866l20.12,8.775a16.028,16.028,0,0,0,6.39,1.33h17" transform="translate(-29.194 -257.492)" fill="none" stroke="#2c3d60" stroke-miterlimit="10" stroke-width="0.5"/>
    <path id="Path_7083" data-name="Path 7083" d="M465.345,596.391s-14.711-10.44-26.52,2.658l-11.081-1.021a9.429,9.429,0,0,0-9.494,9.7l.071,1.948" transform="translate(-120.116 -237.716)" fill="none" stroke="#2c3d60" stroke-miterlimit="10" stroke-width="0.5"/>
    <rect id="Rectangle_1910" data-name="Rectangle 1910" width="3.418" height="3.373" transform="translate(350.614 377.28)" fill="#2c3d60"/>
  </g>
</svg>
