<svg xmlns="http://www.w3.org/2000/svg" width="24" height="24" viewBox="0 0 24 24">
  <g id="Group_916" data-name="Group 916" transform="translate(82 228)">
    <path id="XMLID_20385_" d="M623.42,377.31a2.629,2.629,0,0,0-1.44-1.483,2.125,2.125,0,0,0-1.768.029,2.925,2.925,0,0,1-1.782,0,2.18,2.18,0,0,0-1.768-.029,2.545,2.545,0,0,0-1.44,1.483,2.911,2.911,0,0,0,.071,2.267,8.625,8.625,0,0,0,1.283,1.91,15.739,15.739,0,0,0,2.509,2.238.386.386,0,0,0,.485,0,15.739,15.739,0,0,0,2.509-2.238,8.625,8.625,0,0,0,1.283-1.91h0A2.974,2.974,0,0,0,623.42,377.31Z" transform="translate(-689.167 -595.655)" fill="#afb8ca" stroke="#2c3d63" stroke-width="1"/>
    <g id="Ellipse_636" data-name="Ellipse 636" transform="translate(-82 -228)" fill="none" stroke="#2c3d63" stroke-width="1">
      <circle cx="12" cy="12" r="12" stroke="none"/>
      <circle cx="12" cy="12" r="11.5" fill="none"/>
    </g>
  </g>
</svg>
