<svg xmlns="http://www.w3.org/2000/svg" width="32.14" height="44" viewBox="0 0 32.14 44">
  <g id="Group_900" data-name="Group 900" transform="translate(0)">
    <g id="Group_833" data-name="Group 833">
      <g id="Group_830" data-name="Group 830">
        <g id="Group_829" data-name="Group 829">
          <path id="Path_7005" data-name="Path 7005" d="M63.9,31.336c0-.917,0-1.833.02-2.75,0-1.813.02-3.646.02-5.458,0-1.324.02-2.648.02-3.972a2.5,2.5,0,0,0-.692-1.894A2.527,2.527,0,0,0,61.5,16.57H56.181l.611.611v-1a1.491,1.491,0,0,0-1.69-1.731H52.963l.611.611a4.325,4.325,0,0,0-1.141-3.055,3.761,3.761,0,0,0-2.016-.978,4.472,4.472,0,0,0-4.4,1.609,4.255,4.255,0,0,0-.692,2.424l.611-.611h-2a2.12,2.12,0,0,0-1.12.2,1.472,1.472,0,0,0-.672,1.365v1.141l.611-.611H37.872A6.16,6.16,0,0,0,37,16.59,2.413,2.413,0,0,0,35.122,18.1,3.323,3.323,0,0,0,35,19.2V49.381A2.448,2.448,0,0,0,37.587,51.7h5.8a.611.611,0,0,0,0-1.222H37.607a1.473,1.473,0,0,1-1-.285,1.053,1.053,0,0,1-.387-.631c0-.02-.02-.122,0-.041V18.871c0-.041.02-.2,0-.122a1.2,1.2,0,0,1,1.181-1c.631-.02,1.283,0,1.935,0H42.78a.626.626,0,0,0,.611-.611V15.8c0,.02.02.081,0-.02-.02.041-.02.041.02-.02-.041.041-.041.02.02-.02.061-.061.061-.061.163-.061h2.383a.626.626,0,0,0,.611-.611,1.976,1.976,0,0,1,.02-.346c0-.061.02-.143.02-.2.02-.122-.02.143,0,.02,0-.041.02-.1.02-.143a1.618,1.618,0,0,1,.122-.448c.02-.081.061-.163.081-.224-.061.163,0,.02,0,0,.02-.061.061-.1.081-.163a.841.841,0,0,1,.143-.224.445.445,0,0,1,.081-.1c-.081.122,0,0,.02-.02a.965.965,0,0,1,.2-.2c.041-.041.081-.061.1-.1.02-.02.061-.041.081-.061h0a3.029,3.029,0,0,1,1.324-.53,3.778,3.778,0,0,1,1.181-.061h.081c.122,0-.163-.02-.041,0,.061.02.122.02.183.041a3.256,3.256,0,0,1,.428.1.851.851,0,0,1,.2.081c.122.041-.122-.061,0,0,.041.02.061.041.1.041a3.241,3.241,0,0,1,.448.265c-.143-.1-.02-.02,0,0l.122.122a1.068,1.068,0,0,1,.2.224c.1.1-.061-.1.02.02a.714.714,0,0,1,.1.163,2.225,2.225,0,0,1,.163.305c0,.02.081.183.02.041.02.061.061.143.081.2a2.713,2.713,0,0,1,.1.387,3.632,3.632,0,0,1,.081.835.613.613,0,0,0,.611.611h2.383c.1,0,.1,0,.163.061.041.061.061.061.02.02.041.061.041.081.02.02v1.365a.626.626,0,0,0,.611.611h5.071a2.218,2.218,0,0,1,.652.061,1.25,1.25,0,0,1,.591.387,1.383,1.383,0,0,1,.183.285c-.041-.081.041.1.041.122s.041.2.02.122a1.531,1.531,0,0,1,0,.305c0,1.222,0,2.424-.02,3.646,0,1.792-.02,3.585-.02,5.377,0,1.059-.041,2.139-.02,3.218v.041a.612.612,0,0,0,1.222,0Z" transform="translate(-35 -10.961)" fill="#fff"/>
        </g>
      </g>
      <g id="Group_832" data-name="Group 832" transform="translate(7.169 6.077)">
        <g id="Group_831" data-name="Group 831">
          <path id="Path_7006" data-name="Path 7006" d="M70.2,41.411a1.739,1.739,0,0,0,1.731,1.711h11.1a1.778,1.778,0,0,0,1.792-1.711.613.613,0,0,0-.611-.611.626.626,0,0,0-.611.611c0-.041-.02.1-.041.143,0,0-.061.122-.041.1a.476.476,0,0,1-.346.224.506.506,0,0,1-.183.02H71.911a.468.468,0,0,1-.367-.163.639.639,0,0,1-.122-.326.611.611,0,0,0-1.222,0Z" transform="translate(-70.2 -40.8)" fill="#fff"/>
        </g>
      </g>
    </g>
    <g id="Group_841" data-name="Group 841" transform="translate(4.529 11.8)">
      <g id="Group_835" data-name="Group 835" transform="translate(0 0.048)">
        <g id="Group_834" data-name="Group 834">
          <path id="Path_7007" data-name="Path 7007" d="M57.413,72c.387.387.754.794,1.141,1.181a.608.608,0,0,0,.855,0c.957-.876,1.894-1.752,2.851-2.627.143-.122.265-.244.407-.387a.6.6,0,0,0-.855-.855c-.957.876-1.894,1.752-2.851,2.627-.143.122-.265.244-.407.387h.855c-.387-.387-.754-.794-1.141-1.181a.6.6,0,0,0-.855.855Z" transform="translate(-57.237 -69.137)" fill="#fff"/>
        </g>
      </g>
      <g id="Group_840" data-name="Group 840" transform="translate(7.897)">
        <g id="Group_837" data-name="Group 837">
          <g id="Group_836" data-name="Group 836">
            <path id="Path_7008" data-name="Path 7008" d="M96.6,70.122h6.721a.611.611,0,0,0,0-1.222H96.6a.611.611,0,0,0,0,1.222Z" transform="translate(-96.012 -68.9)" fill="#fff"/>
          </g>
        </g>
        <g id="Group_839" data-name="Group 839" transform="translate(0 3.401)">
          <g id="Group_838" data-name="Group 838">
            <path id="Path_7009" data-name="Path 7009" d="M96.6,86.822h11.324a.611.611,0,0,0,0-1.222H96.6a.611.611,0,0,0,0,1.222Z" transform="translate(-96.012 -85.6)" fill="#fff"/>
          </g>
        </g>
      </g>
    </g>
    <g id="Group_843" data-name="Group 843" transform="translate(7.673 19.566)">
      <g id="Group_842" data-name="Group 842">
        <path id="Path_7010" data-name="Path 7010" d="M84.979,130.241a2.063,2.063,0,0,1-1.263-.652c-.489-.448-.9-1-1.385-1.446a2.736,2.736,0,0,0-1.752-.754c-.631-.041-1.283.041-1.914.02a2.582,2.582,0,0,1-.692-.061,1.264,1.264,0,0,1-.652-.265,1.546,1.546,0,0,1-.509-1.242c-.061-1.2.326-2.607-.448-3.646a10.778,10.778,0,0,0-1.446-1.446,2.888,2.888,0,0,1-.9-1.263,1.448,1.448,0,0,1,.346-1.242,13.748,13.748,0,0,1,1.344-1.324,3.076,3.076,0,0,0,1.059-1.609,8.971,8.971,0,0,0,.041-1.955,3.572,3.572,0,0,1,.163-1.609,1.278,1.278,0,0,1,1-.692c1.161-.224,2.485.265,3.625-.244s1.67-1.853,2.75-2.444a1.27,1.27,0,0,1,1.263,0,5.352,5.352,0,0,1,1.283,1.161,4.918,4.918,0,0,0,1.528,1.3,4.339,4.339,0,0,0,1.914.183,6.828,6.828,0,0,1,1.711.041,1.2,1.2,0,0,1,.937.754,4.25,4.25,0,0,1,.143,1.609,7.863,7.863,0,0,0,.061,1.955c.285,1.263,1.65,1.894,2.383,2.851a1.422,1.422,0,0,1,.326,1.3,3.243,3.243,0,0,1-.937,1.242,10.621,10.621,0,0,0-1.426,1.446,3.112,3.112,0,0,0-.428,1.813c0,.611.081,1.222.02,1.853a1.6,1.6,0,0,1-.489,1.141,2.148,2.148,0,0,1-1.426.305c-.631,0-1.263-.081-1.894-.02a2.82,2.82,0,0,0-1.752.774c-.468.448-.876.957-1.344,1.405a1.753,1.753,0,0,1-1.242.754.611.611,0,0,0,0,1.222h0a.611.611,0,0,0,0-1.222h0v1.222c1.466-.041,2.322-1.263,3.259-2.22a2.094,2.094,0,0,1,.672-.53,2.179,2.179,0,0,1,.754-.1c.652,0,1.3.061,1.935.041a3.177,3.177,0,0,0,1.853-.631,2.54,2.54,0,0,0,.835-1.65,10.652,10.652,0,0,0,.02-1.976,2.213,2.213,0,0,1,.306-1.548c.835-1.018,2.22-1.711,2.485-3.116.265-1.446-.774-2.444-1.752-3.34a2.6,2.6,0,0,1-1.039-1.405,15.055,15.055,0,0,1,.02-1.914,4.124,4.124,0,0,0-.367-1.914,2.342,2.342,0,0,0-1.487-1.141,5.916,5.916,0,0,0-1.894-.143,7.832,7.832,0,0,1-.978.02,2.111,2.111,0,0,1-.754-.1,2.656,2.656,0,0,1-.692-.57c-.265-.265-.509-.55-.774-.835a4.437,4.437,0,0,0-1.568-1.181,2.373,2.373,0,0,0-1.935.061,4.89,4.89,0,0,0-1.487,1.181l-.672.733a2.238,2.238,0,0,1-.733.591,4.994,4.994,0,0,1-1.833.081c-1.242-.041-2.688.081-3.32,1.344a4.259,4.259,0,0,0-.346,1.874,10.451,10.451,0,0,1,0,1.955c-.1.57-.652,1-1.1,1.385a6.663,6.663,0,0,0-1.3,1.426,2.441,2.441,0,0,0-.346,1.914,3.483,3.483,0,0,0,1,1.629,17.545,17.545,0,0,1,1.528,1.487,2.4,2.4,0,0,1,.265,1.568c-.041,1.222-.163,2.688.9,3.544,1.1.876,2.566.55,3.87.591a2.122,2.122,0,0,1,.672.1,2.922,2.922,0,0,1,.733.591,15.035,15.035,0,0,0,1.385,1.405,2.871,2.871,0,0,0,1.813.733A.583.583,0,1,0,84.979,130.241Z" transform="translate(-72.672 -107.029)" fill="#fff"/>
      </g>
    </g>
    <g id="Group_844" data-name="Group 844" transform="translate(14.725 29.845)">
      <path id="Path_7011" data-name="Path 7011" d="M109.927,157.6a.342.342,0,0,0-.285.122.582.582,0,0,0-.1.346v1.772l-1.181-1.792-.1-.163a.89.89,0,0,0-.122-.143.365.365,0,0,0-.143-.1.6.6,0,0,0-.2-.041.409.409,0,0,0-.265.081.578.578,0,0,0-.183.2,1.062,1.062,0,0,0-.041.285v2.648a.582.582,0,0,0,.1.346.443.443,0,0,0,.611,0,.479.479,0,0,0,.122-.346v-1.711l1.161,1.772c.041.061.081.1.122.163a.476.476,0,0,0,.143.143.715.715,0,0,0,.163.1.6.6,0,0,0,.2.041c.163,0,.448-.061.448-.53v-2.709a.583.583,0,0,0-.1-.346.511.511,0,0,0-.346-.143Z" transform="translate(-107.3 -157.58)" fill="#fff"/>
      <path id="Path_7012" data-name="Path 7012" d="M127.583,160.692h-1.528v-.815h1.365a.5.5,0,0,0,.305-.1.344.344,0,0,0,0-.489.4.4,0,0,0-.285-.1h-1.365v-.672h1.487a.5.5,0,0,0,.305-.1.291.291,0,0,0,.1-.265.337.337,0,0,0-.1-.244.421.421,0,0,0-.305-.1H125.73a1.2,1.2,0,0,0-.285.041.4.4,0,0,0-.183.183.591.591,0,0,0-.061.285V160.9a.551.551,0,0,0,.122.387.519.519,0,0,0,.387.122H127.6a.5.5,0,0,0,.306-.1.313.313,0,0,0,.1-.265.387.387,0,0,0-.1-.265A.854.854,0,0,0,127.583,160.692Z" transform="translate(-121.554 -157.739)" fill="#fff"/>
      <path id="Path_7013" data-name="Path 7013" d="M143.838,157.643a.4.4,0,0,0-.285-.122.352.352,0,0,0-.265.1.481.481,0,0,0-.122.183,2.106,2.106,0,0,0-.061.244l-.367,1.67-.428-1.548c-.041-.163-.081-.265-.1-.346a.427.427,0,0,0-.163-.224.572.572,0,0,0-.652,0,.427.427,0,0,0-.163.224,1.844,1.844,0,0,0-.1.346l-.407,1.548-.367-1.67a1.891,1.891,0,0,0-.122-.367.318.318,0,0,0-.326-.163.418.418,0,0,0-.407.407,1.249,1.249,0,0,0,.061.326l.57,2.3c.02.061.041.143.061.224a.754.754,0,0,0,.1.224.62.62,0,0,0,.163.163.484.484,0,0,0,.244.061.5.5,0,0,0,.306-.1.577.577,0,0,0,.163-.224c.02-.061.061-.183.1-.346l.489-1.772.468,1.772c.041.163.081.285.1.346a.522.522,0,0,0,.163.224.5.5,0,0,0,.305.1.518.518,0,0,0,.326-.1.578.578,0,0,0,.163-.224c.02-.081.061-.183.1-.346l.57-2.3a1.411,1.411,0,0,0,.061-.326.767.767,0,0,0-.183-.285Z" transform="translate(-132.942 -157.5)" fill="#fff"/>
    </g>
    <g id="Group_846" data-name="Group 846" transform="translate(11.576 23.118)">
      <g id="Group_845" data-name="Group 845">
        <path id="Path_7014" data-name="Path 7014" d="M100.486,140.588A7.543,7.543,0,0,1,93.5,135.7a7.455,7.455,0,1,1,14.318-1.12,7.445,7.445,0,0,1-6.171,5.906,6.841,6.841,0,0,1-1.161.1.611.611,0,0,0,0,1.222,8.741,8.741,0,1,0-1.385-.122,10.6,10.6,0,0,0,1.385.122A.611.611,0,0,0,100.486,140.588Z" transform="translate(-91.838 -124.472)" fill="#fff"/>
      </g>
    </g>
  </g>
</svg>
