<svg xmlns="http://www.w3.org/2000/svg" width="120.599" height="120.5" viewBox="0 0 120.599 120.5">
  <g id="orders-illustration-image" transform="translate(-214.91 -215.54)">
    <ellipse id="Ellipse_353" data-name="Ellipse 353" cx="58.92" cy="59.103" rx="58.92" ry="59.103" transform="translate(214.91 216.687)" fill="#e99797" opacity="0.21"/>
    <path id="Path_879" data-name="Path 879" d="M374.68,257.049v93.81a4.793,4.793,0,0,1-4.786,4.8H307.143a5.712,5.712,0,0,1-5.7-5.721v-70.75l25.489-26.549,42.843-.46a4.863,4.863,0,0,1,4.908,4.87Z" transform="translate(-68.319 -28.707)" fill="#fff" stroke="#707070" stroke-width="0.5"/>
    <path id="Path_880" data-name="Path 880" d="M370.845,257.024v90.989a4.625,4.625,0,0,1-4.592,4.655H306.062a5.51,5.51,0,0,1-5.472-5.548V278.509l24.453-25.756,41.086-.454a4.694,4.694,0,0,1,4.716,4.725Z" transform="translate(-67.647 -28.802)" fill="#acd8c7" stroke="#707070" stroke-width="0.5"/>
    <rect id="Rectangle_1832" data-name="Rectangle 1832" width="14.252" height="14.296" rx="4.37" transform="translate(242.958 277.739)" fill="#fff" stroke="#707070" stroke-width="0.5"/>
    <rect id="Rectangle_1833" data-name="Rectangle 1833" width="14.252" height="14.296" rx="4.37" transform="translate(242.853 298.259)" fill="#fff" stroke="#707070" stroke-width="0.5"/>
    <rect id="Rectangle_1834" data-name="Rectangle 1834" width="14.252" height="14.296" rx="4.37" transform="translate(242.958 257.219)" fill="#fff" stroke="#707070" stroke-width="0.5"/>
    <path id="Path_881" data-name="Path 881" d="M522.31,531.693l3.391-9.078,24.891-23.239c1.4-1.3,2.753-1.887,3.988-.422l2.06,1.5c1.246,1.478,1.5,2.582.023,5.233L533.468,527.3Z" transform="translate(-242.705 -222.705)" fill="#fff" stroke="#707070" stroke-width="0.5"/>
    <path id="Path_882" data-name="Path 882" d="M527.251,529.371l1.915-4.63,24.371-23.864a4.3,4.3,0,0,1,5.592.327l1.019.741c1.246,1.478-.082,2.491-1.486,3.8l-23.224,21.377a6.2,6.2,0,0,1-1.069.787l-5.245,3.044C527.822,531.706,525.824,533.306,527.251,529.371Z" transform="translate(-246.217 -224.207)" fill="#e99797" stroke="#707070" stroke-width="0.5"/>
    <path id="Path_883" data-name="Path 883" d="M306.75,277.122,330.843,252.3l-.211,21.293a3.753,3.753,0,0,1-3.788,3.53Z" transform="translate(-72.511 -28.802)" fill="#e99797" stroke="#707070" stroke-width="0.5"/>
    <path id="Path_884" data-name="Path 884" d="M527.72,282.78h38.735a.961.961,0,0,1,.96.963v9.81a.961.961,0,0,1-.96.963H527.292a.533.533,0,0,1-.532-.534V283.743A.961.961,0,0,1,527.72,282.78Z" transform="translate(-246.218 -52.848)" fill="#e99797" stroke="#707070" stroke-width="0.5"/>
    <path id="Path_885" data-name="Path 885" d="M542.77,337.13h34.3a.12.12,0,0,1,.12.12V357.8a4.1,4.1,0,0,1-4.091,4.1H546.741a3.978,3.978,0,0,1-3.971-3.984Z" transform="translate(-258.859 -95.724)" fill="#fff" stroke="#707070" stroke-width="0.5"/>
    <rect id="Rectangle_1835" data-name="Rectangle 1835" width="16.74" height="7.632" transform="translate(293.233 248.823)" fill="#acd8c7" stroke="#707070" stroke-width="0.5"/>
    <path id="Path_886" data-name="Path 886" d="M542.77,293.717l10.9-11.617,12.335.19-11.79,11.427Z" transform="translate(-258.859 -52.311)" fill="#acd8c7" stroke="#707070" stroke-width="0.5"/>
    <path id="Path_887" data-name="Path 887" d="M653.88,294.254l11.327-11.474,2.572,1.558-.24,9.426-1.566.775Z" transform="translate(-346.584 -52.848)" fill="#acd8c7" stroke="#707070" stroke-width="0.5"/>
    <path id="Path_888" data-name="Path 888" d="M655.56,296.734l10.195-10.323a2.05,2.05,0,0,1,2.526-.315l.166.1a2.06,2.06,0,0,1,.993,1.818L669.261,295a2.061,2.061,0,0,1-1.145,1.8h0a2.054,2.054,0,0,1-.958.211Z" transform="translate(-347.911 -55.229)" fill="#acd8c7" stroke="#707070" stroke-width="0.5"/>
    <path id="Path_889" data-name="Path 889" d="M526.76,285.352H562.1a2.529,2.529,0,0,1,2.525,2.464l.21,6.69,2.334-.752.24-8.4s-.017-2.533-3.5-2.348l-35.029-.234A2.691,2.691,0,0,0,526.76,285.352Z" transform="translate(-246.218 -52.84)" fill="#fff" stroke="#707070" stroke-width="0.5"/>
    <path id="Path_890" data-name="Path 890" d="M231.695,443.76l-1.945,2.356h4.277Z" transform="translate(-11.717 -179.843)" fill="#e99797" stroke="#707070" stroke-width="0.5"/>
    <path id="Path_891" data-name="Path 891" d="M557.745,220.65l-1.945,2.356h4.276Z" transform="translate(-269.146 -3.834)" fill="#e99797" stroke="#707070" stroke-width="0.5"/>
    <path id="Path_892" data-name="Path 892" d="M234.835,559.91l-3.605,4.37h7.93Z" transform="translate(-12.885 -271.472)" fill="#2c3d60" stroke="#707070" stroke-width="0.5"/>
    <path id="Path_893" data-name="Path 893" d="M751.013,505.42l-3.6,4.37h7.93Z" transform="translate(-420.43 -228.486)" fill="#acd8c7" stroke="#707070" stroke-width="0.5"/>
    <ellipse id="Ellipse_354" data-name="Ellipse 354" cx="1.789" cy="1.794" rx="1.789" ry="1.794" transform="translate(234.55 230.865)" fill="#acdbc9" stroke="#707070" stroke-width="0.5"/>
    <ellipse id="Ellipse_355" data-name="Ellipse 355" cx="1.789" cy="1.794" rx="1.789" ry="1.794" transform="translate(224.757 307.78)" fill="#e99797" stroke="#707070" stroke-width="0.5"/>
    <ellipse id="Ellipse_356" data-name="Ellipse 356" cx="1.789" cy="1.794" rx="1.789" ry="1.794" transform="translate(329.156 291.898)" fill="#e99797" stroke="#707070" stroke-width="0.5"/>
    <ellipse id="Ellipse_357" data-name="Ellipse 357" cx="0.894" cy="0.897" rx="0.894" ry="0.897" transform="translate(225.652 245.696)" fill="#2c3d60" stroke="#707070" stroke-width="0.5"/>
    <ellipse id="Ellipse_358" data-name="Ellipse 358" cx="0.894" cy="0.897" rx="0.894" ry="0.897" transform="translate(285.759 333.996)" fill="#2c3d60" stroke="#707070" stroke-width="0.5"/>
    <ellipse id="Ellipse_359" data-name="Ellipse 359" cx="0.894" cy="0.897" rx="0.894" ry="0.897" transform="translate(313.959 314.324)" fill="#2c3d60" stroke="#707070" stroke-width="0.5"/>
    <ellipse id="Ellipse_360" data-name="Ellipse 360" cx="2.258" cy="2.265" rx="2.258" ry="2.265" transform="translate(316.084 299.029)" fill="none" stroke="#e99797" stroke-miterlimit="10" stroke-width="0.5"/>
    <ellipse id="Ellipse_361" data-name="Ellipse 361" cx="2.258" cy="2.265" rx="2.258" ry="2.265" transform="translate(250.084 216.907)" fill="none" stroke="#acd8c7" stroke-miterlimit="10" stroke-width="0.5"/>
    <ellipse id="Ellipse_362" data-name="Ellipse 362" cx="0.894" cy="0.897" rx="0.894" ry="0.897" transform="translate(260.546 330.356)" fill="#e99797" stroke="#707070" stroke-width="0.5"/>
    <ellipse id="Ellipse_363" data-name="Ellipse 363" cx="0.894" cy="0.897" rx="0.894" ry="0.897" transform="translate(224.486 276.738)" fill="#e99797" stroke="#707070" stroke-width="0.5"/>
    <ellipse id="Ellipse_364" data-name="Ellipse 364" cx="0.894" cy="0.897" rx="0.894" ry="0.897" transform="translate(320.626 267.006)" fill="#acd8c7" stroke="#707070" stroke-width="0.5"/>
    <ellipse id="Ellipse_365" data-name="Ellipse 365" cx="0.894" cy="0.897" rx="0.894" ry="0.897" transform="translate(223.863 322.965)" fill="#e99797" stroke="#707070" stroke-width="0.5"/>
    <ellipse id="Ellipse_366" data-name="Ellipse 366" cx="0.894" cy="0.897" rx="0.894" ry="0.897" transform="translate(327.518 236.846)" fill="#e99797" stroke="#707070" stroke-width="0.5"/>
    <ellipse id="Ellipse_367" data-name="Ellipse 367" cx="0.894" cy="0.897" rx="0.894" ry="0.897" transform="translate(272.041 215.79)" fill="#e99797" stroke="#707070" stroke-width="0.5"/>
    <path id="Path_894" data-name="Path 894" d="M754.22,393.537l1.968-2.434a.712.712,0,0,1,1.107,0l1.987,2.436" transform="translate(-425.807 -138.094)" fill="none" stroke="#e99797" stroke-miterlimit="10" stroke-width="0.5"/>
    <path id="Path_895" data-name="Path 895" d="M527.041,282.78h38.706a1.107,1.107,0,0,1,1.1,1.108v10.036a.588.588,0,0,1-.587.589H526.524a.474.474,0,0,1-.474-.475V283.774A.993.993,0,0,1,527.041,282.78Z" transform="translate(-245.658 -52.848)" fill="none" stroke="#2c3d60" stroke-miterlimit="10" stroke-width="0.5"/>
    <path id="Path_896" data-name="Path 896" d="M374.149,324.51v25.333a5.608,5.608,0,0,1-5.472,5.736H306a5.611,5.611,0,0,1-5.472-5.736V280.962a5.874,5.874,0,0,1,1.616-4.07l22.277-23.176a5.347,5.347,0,0,1,3.854-1.666h40.408a5.609,5.609,0,0,1,5.472,5.736v1.056" transform="translate(-67.6 -28.605)" fill="none" stroke="#2c3d60" stroke-miterlimit="10" stroke-width="0.5"/>
    <path id="Path_897" data-name="Path 897" d="M577.185,294.516v20.516a3.916,3.916,0,0,1-3.805,4.011H546.749a4.106,4.106,0,0,1-4-4.2V294.516l11.034-11.736" transform="translate(-258.843 -52.848)" fill="none" stroke="#2c3d60" stroke-miterlimit="10" stroke-width="0.5"/>
    <rect id="Rectangle_1836" data-name="Rectangle 1836" width="16.74" height="7.632" rx="3.33" transform="translate(293.233 248.823)" fill="none" stroke="#2c3d60" stroke-miterlimit="10" stroke-width="0.5"/>
    <line id="Line_49" data-name="Line 49" y1="11.736" x2="12.209" transform="translate(295.087 229.932)" fill="none" stroke="#2c3d60" stroke-miterlimit="10" stroke-width="0.5"/>
    <line id="Line_50" data-name="Line 50" y1="11.736" x2="12.207" transform="translate(306.929 229.932)" fill="none" stroke="#2c3d60" stroke-miterlimit="10" stroke-width="0.5"/>
    <line id="Line_51" data-name="Line 51" y1="6.775" transform="translate(306.929 266.187)" fill="none" stroke="#2c3d60" stroke-miterlimit="10" stroke-width="0.5"/>
    <path id="Path_898" data-name="Path 898" d="M308.23,278.817l17.38.528a6.357,6.357,0,0,0,6.354-6.321l.143-18.544" transform="translate(-73.68 -30.522)" fill="none" stroke="#2c3d60" stroke-miterlimit="10" stroke-width="0.5"/>
    <line id="Line_52" data-name="Line 52" x2="9.511" transform="translate(264.32 260.463)" fill="none" stroke="#2c3d60" stroke-miterlimit="10" stroke-width="0.5"/>
    <line id="Line_53" data-name="Line 53" x2="16.073" transform="translate(264.32 267.903)" fill="none" stroke="#2c3d60" stroke-miterlimit="10" stroke-width="0.5"/>
    <rect id="Rectangle_1837" data-name="Rectangle 1837" width="14.456" height="14.501" rx="3.17" transform="translate(242.825 257.219)" fill="none" stroke="#2c3d60" stroke-miterlimit="10" stroke-width="0.5"/>
    <line id="Line_54" data-name="Line 54" y1="12.99" x2="13.785" transform="translate(243.086 257.871)" fill="none" stroke="#2c3d60" stroke-miterlimit="10" stroke-width="0.5"/>
    <line id="Line_55" data-name="Line 55" x2="9.511" transform="translate(264.32 280.878)" fill="none" stroke="#2c3d60" stroke-miterlimit="10" stroke-width="0.5"/>
    <line id="Line_56" data-name="Line 56" x2="16.073" transform="translate(264.32 288.319)" fill="none" stroke="#2c3d60" stroke-miterlimit="10" stroke-width="0.5"/>
    <rect id="Rectangle_1838" data-name="Rectangle 1838" width="14.456" height="14.501" rx="3.17" transform="translate(242.825 277.635)" fill="none" stroke="#2c3d60" stroke-miterlimit="10" stroke-width="0.5"/>
    <line id="Line_57" data-name="Line 57" y1="13.112" x2="13.697" transform="translate(243.168 278.285)" fill="none" stroke="#2c3d60" stroke-miterlimit="10" stroke-width="0.5"/>
    <line id="Line_58" data-name="Line 58" x2="9.511" transform="translate(264.32 301.294)" fill="none" stroke="#2c3d60" stroke-miterlimit="10" stroke-width="0.5"/>
    <line id="Line_59" data-name="Line 59" x2="8.037" transform="translate(264.32 308.736)" fill="none" stroke="#2c3d60" stroke-miterlimit="10" stroke-width="0.5"/>
    <rect id="Rectangle_1839" data-name="Rectangle 1839" width="14.456" height="14.501" rx="3.17" transform="translate(242.825 298.052)" fill="none" stroke="#2c3d60" stroke-miterlimit="10" stroke-width="0.5"/>
    <line id="Line_60" data-name="Line 60" y1="13.27" x2="13.564" transform="translate(243.301 298.702)" fill="none" stroke="#2c3d60" stroke-miterlimit="10" stroke-width="0.5"/>
    <path id="Path_899" data-name="Path 899" d="M522.17,532.964l3.5-9.029a.4.4,0,0,1,.095-.144l24.174-22.941a4.4,4.4,0,0,1,5.916-.129h0a4.586,4.586,0,0,1,.1,6.823L532.88,528.867a.361.361,0,0,1-.105.07L522.7,533.465a.392.392,0,0,1-.526-.5Z" transform="translate(-242.573 -223.926)" fill="none" stroke="#2c3d60" stroke-miterlimit="10" stroke-width="0.5"/>
    <line id="Line_61" data-name="Line 61" x2="5.954" y2="6.65" transform="translate(303.198 280.878)" fill="none" stroke="#2c3d60" stroke-miterlimit="10" stroke-width="0.5"/>
  </g>
</svg>
