<svg xmlns="http://www.w3.org/2000/svg" width="18.997" height="18.997" viewBox="0 0 18.997 18.997">
  <g id="Group_914" data-name="Group 914" transform="translate(141.9 222.985)">
    <g id="order_1_stroke_-01" data-name="order 1 (stroke)-01" transform="translate(-341.124 -401.577)">
      <path id="Path_900" data-name="Path 900" d="M498.92,509.889h5.889c.292,0,.585,0,.877,0a.637.637,0,0,1,.6.346.773.773,0,0,1,.052.347v2.909c0,.827.006,1.654,0,2.48a1.818,1.818,0,0,1-1.168,1.664,3.256,3.256,0,0,1-1.278.133l-3.39-.041c-.095,0-.189,0-.284,0a2.2,2.2,0,0,1-1.2-.389,1.95,1.95,0,0,1-.839-1.617q0-1.382,0-2.765v-1.641c0-.253-.011-.507,0-.758a.738.738,0,0,1,.749-.665.211.211,0,1,0,0-.421,1.219,1.219,0,0,0-1.112.7,1.275,1.275,0,0,0-.088.521v4.623a3.509,3.509,0,0,0,.118,1.164,2.517,2.517,0,0,0,1.984,1.628,8.61,8.61,0,0,0,1.207.046l1.931.024,1.375.017a2.47,2.47,0,0,0,1.958-.865,2.29,2.29,0,0,0,.491-1.513v-4.747a2.8,2.8,0,0,0-.054-.914,1.084,1.084,0,0,0-1.018-.689c-.07,0-.14,0-.21,0h-6.58A.211.211,0,1,0,498.92,509.889Z" transform="translate(-289.07 -321.106)" fill="none" stroke="#5f7096" stroke-linecap="square" stroke-linejoin="bevel" stroke-width="1"/>
      <path id="Path_901" data-name="Path 901" d="M585.392,408.265a4.19,4.19,0,0,1,0-.982,3.14,3.14,0,0,1,.194-.8,1.585,1.585,0,0,1,.479-.658,1.627,1.627,0,0,1,1.078-.276c.022,0,.793,0,.815.005-.046-.005-.733,0-.722,0l.812.011a2.026,2.026,0,0,1,.252.069c.058.019-.747,0-.724.01l.06.026a1.522,1.522,0,0,1,.148.079l.06.038c.05.033-.005-.007.043.031a1.65,1.65,0,0,1,.129.112,1.73,1.73,0,0,1,.43.786,4.178,4.178,0,0,1,.062,1.544c-.013.112.112.211.225.211a.223.223,0,0,0,.225-.211,3.326,3.326,0,0,0-.459-2.442,1.828,1.828,0,0,0-1.186-.676,2.226,2.226,0,0,0-1.258.185,2.142,2.142,0,0,0-1.06,1.6,4.307,4.307,0,0,0-.051,1.331.226.226,0,0,0,.225.211c.11,0,.24-.1.225-.211Z" transform="translate(-373.651 -219.692)" fill="none" stroke="#5f7096" stroke-linecap="square" stroke-linejoin="bevel" stroke-width="1"/>
      <path id="Path_902" data-name="Path 902" d="M213.531,185.371V180a.907.907,0,0,0-.5-.79,2.894,2.894,0,0,0-1.232-.112H201.409a2.253,2.253,0,0,0-1.307.187c-.426.307-.377.761-.377,1.2v13.166a.927.927,0,0,0,.464.831,1.375,1.375,0,0,0,.719.129h7.77a.211.211,0,1,0,0-.421h-7.721a1.257,1.257,0,0,1-.491-.045c-.377-.165-.294-.625-.294-.944V180.1a.533.533,0,0,1,.21-.489.771.771,0,0,1,.471-.092h11.524a1.07,1.07,0,0,1,.393.037c.3.12.311.393.311.65v5.16A.226.226,0,0,0,213.531,185.371Z" transform="translate(0 0)" fill="none" stroke="#5f7096" stroke-linecap="square" stroke-linejoin="bevel" stroke-width="1"/>
      <path id="Path_903" data-name="Path 903" d="M256.011,271.613l.956.708a.241.241,0,0,0,.318,0l1.71-1.752c.195-.2-.122-.5-.318-.3l-1.71,1.752h.318l-.955-.708a.244.244,0,0,0-.318,0,.2.2,0,0,0,0,.3Z" transform="translate(-54.539 -88.559)" fill="none" stroke="#5f7096" stroke-linecap="square" stroke-linejoin="bevel" stroke-width="1"/>
      <path id="Path_904" data-name="Path 904" d="M256.011,418.433l.956.708a.24.24,0,0,0,.318,0l1.709-1.752c.195-.2-.122-.5-.318-.3l-1.709,1.752h.318l-.955-.708a.244.244,0,0,0-.318,0,.2.2,0,0,0,0,.3Z" transform="translate(-54.539 -231.258)" fill="none" stroke="#5f7096" stroke-linecap="square" stroke-linejoin="bevel" stroke-width="1"/>
      <path id="Path_905" data-name="Path 905" d="M256.011,564.3l.956.709a.241.241,0,0,0,.318,0l1.71-1.752c.195-.2-.122-.5-.318-.3l-1.71,1.751h.318L256.33,564a.244.244,0,0,0-.318,0,.2.2,0,0,0,0,.3Z" transform="translate(-54.539 -373.033)" fill="none" stroke="#5f7096" stroke-linecap="square" stroke-linejoin="bevel" stroke-width="1"/>
      <path id="Path_906" data-name="Path 906" d="M411.032,280.871h4.551a.211.211,0,1,0,0-.421h-4.551A.211.211,0,1,0,411.032,280.871Z" transform="translate(-204.768 -98.516)" fill="none" stroke="#5f7096" stroke-linecap="square" stroke-linejoin="bevel" stroke-width="1"/>
      <path id="Path_907" data-name="Path 907" d="M411.032,409.581h4.551a.211.211,0,1,0,0-.421h-4.551A.211.211,0,1,0,411.032,409.581Z" transform="translate(-204.768 -223.613)" fill="none" stroke="#5f7096" stroke-linecap="square" stroke-linejoin="bevel" stroke-width="1"/>
    </g>
  </g>
</svg>
