<svg xmlns="http://www.w3.org/2000/svg" width="52" height="52" viewBox="0 0 52 52">
  <g id="Group_922" data-name="Group 922" transform="translate(148 469)">
    <g id="_Leading_Icon_l_Use_High_Emphasis" data-name="ðŸ“ Leading Icon l Use High Emphasis" transform="translate(-148 -469)">
      <path id="Path_594" data-name="Path 594" d="M26,0A26,26,0,1,1,0,26,26,26,0,0,1,26,0Z" fill="#fff"/>
      <rect id="Boundary" width="44" height="44" transform="translate(4 4)" fill="none"/>
      <path id="search-icon" d="M21.955,24h0l-6.86-6.846V16.069l-.371-.384a8.933,8.933,0,1,1,.96-.96l.384.371h1.084L24,21.956,21.956,24ZM8.92,2.744A6.175,6.175,0,1,0,15.095,8.92,6.183,6.183,0,0,0,8.92,2.744Z" transform="translate(14 14)" fill="#2c3d63"/>
    </g>
  </g>
</svg>
