<svg xmlns="http://www.w3.org/2000/svg" width="120.25" height="105.25" viewBox="0 0 120.25 105.25">
  <g id="subscriptions-illustration-image" transform="translate(-112.08 -163.56)">
    <ellipse id="Ellipse_615" data-name="Ellipse 615" cx="51.266" cy="51.722" rx="51.266" ry="51.722" transform="translate(118.377 163.56)" fill="#e99797" opacity="0.21"/>
    <rect id="Rectangle_1950" data-name="Rectangle 1950" width="81.933" height="70.019" rx="35.009" transform="translate(133.821 186.861)" fill="#fff"/>
    <path id="Path_7104" data-name="Path 7104" d="M507.73,178.43l-1.64,2H509.7Z" transform="translate(-333.067 -12.55)" fill="#2c3d60"/>
    <path id="Path_7105" data-name="Path 7105" d="M137.915,469.48l-2.435,2.968h5.356Z" transform="translate(-19.781 -258.182)" fill="#acdbc9"/>
    <ellipse id="Ellipse_616" data-name="Ellipse 616" cx="0.755" cy="0.762" rx="0.755" ry="0.762" transform="translate(190.819 171.712)" fill="#acdbc9"/>
    <ellipse id="Ellipse_617" data-name="Ellipse 617" cx="0.755" cy="0.762" rx="0.755" ry="0.762" transform="translate(127.424 248.801)" fill="#acdbc9"/>
    <ellipse id="Ellipse_618" data-name="Ellipse 618" cx="0.755" cy="0.762" rx="0.755" ry="0.762" transform="translate(151.225 167.467)" fill="#e99797"/>
    <ellipse id="Ellipse_619" data-name="Ellipse 619" cx="0.755" cy="0.762" rx="0.755" ry="0.762" transform="translate(148.501 258.793)" fill="#2c3d60"/>
    <ellipse id="Ellipse_620" data-name="Ellipse 620" cx="0.755" cy="0.762" rx="0.755" ry="0.762" transform="translate(126.67 205.577)" fill="#2c3d60"/>
    <ellipse id="Ellipse_621" data-name="Ellipse 621" cx="1.508" cy="1.521" rx="1.508" ry="1.521" transform="translate(125.162 186.797)" fill="#e99797"/>
    <ellipse id="Ellipse_622" data-name="Ellipse 622" cx="1.508" cy="1.521" rx="1.508" ry="1.521" transform="translate(219.401 200.681)" fill="none" stroke="#acdbc9" stroke-miterlimit="10" stroke-width="0.5"/>
    <ellipse id="Ellipse_623" data-name="Ellipse 623" cx="2.58" cy="2.603" rx="2.58" ry="2.603" transform="translate(163.317 263.354)" fill="none" stroke="#acdbc9" stroke-miterlimit="10" stroke-width="0.5"/>
    <ellipse id="Ellipse_624" data-name="Ellipse 624" cx="1.508" cy="1.521" rx="1.508" ry="1.521" transform="translate(222.849 211.261)" fill="none" stroke="#e99797" stroke-miterlimit="10" stroke-width="0.5"/>
    <ellipse id="Ellipse_625" data-name="Ellipse 625" cx="1.508" cy="1.521" rx="1.508" ry="1.521" transform="translate(185.344 262.125)" fill="#e99797"/>
    <path id="Path_7106" data-name="Path 7106" d="M257.5,329.53h71.519a5.581,5.581,0,0,1,5.556,5.605v9.675H252.64V334.431a4.88,4.88,0,0,1,4.858-4.9Z" transform="translate(-118.819 -140.071)" fill="#e99797"/>
    <rect id="Rectangle_1951" data-name="Rectangle 1951" width="5.277" height="17.37" rx="2.639" transform="translate(199.544 176.718)" fill="#acdbc9" stroke="#2c3d60" stroke-miterlimit="10" stroke-width="0.5"/>
    <rect id="Rectangle_1952" data-name="Rectangle 1952" width="5.277" height="17.37" rx="2.639" transform="translate(181.575 176.718)" fill="#acdbc9" stroke="#2c3d60" stroke-miterlimit="10" stroke-width="0.5"/>
    <rect id="Rectangle_1953" data-name="Rectangle 1953" width="5.277" height="17.37" rx="2.639" transform="translate(163.353 176.718)" fill="#acdbc9" stroke="#2c3d60" stroke-miterlimit="10" stroke-width="0.5"/>
    <rect id="Rectangle_1954" data-name="Rectangle 1954" width="5.277" height="17.37" rx="2.639" transform="translate(145.383 176.718)" fill="#acdbc9" stroke="#2c3d60" stroke-miterlimit="10" stroke-width="0.5"/>
    <path id="Path_7107" data-name="Path 7107" d="M252.64,348.621V318.839a5.933,5.933,0,0,1,5.907-5.959H264.2" transform="translate(-118.819 -126.019)" fill="none" stroke="#2c3d60" stroke-miterlimit="10" stroke-width="0.5"/>
    <line id="Line_162" data-name="Line 162" x2="12.692" transform="translate(150.66 186.861)" fill="none" stroke="#2c3d60" stroke-miterlimit="10" stroke-width="0.5"/>
    <line id="Line_163" data-name="Line 163" x2="12.945" transform="translate(168.63 186.861)" fill="none" stroke="#2c3d60" stroke-miterlimit="10" stroke-width="0.5"/>
    <line id="Line_164" data-name="Line 164" x2="12.692" transform="translate(186.852 186.861)" fill="none" stroke="#2c3d60" stroke-miterlimit="10" stroke-width="0.5"/>
    <path id="Path_7108" data-name="Path 7108" d="M711.68,312.88H715.7a6.942,6.942,0,0,1,6.911,6.974v23.707" transform="translate(-506.858 -126.019)" fill="none" stroke="#2c3d60" stroke-miterlimit="10" stroke-width="0.5"/>
    <path id="Path_7109" data-name="Path 7109" d="M252.64,670.36V677.1a7.216,7.216,0,0,0,7.147,7.252l50.6.247" transform="translate(-118.819 -427.715)" fill="none" stroke="#2c3d60" stroke-miterlimit="10" stroke-width="0.5"/>
    <line id="Line_165" data-name="Line 165" x2="60.782" transform="translate(133.821 204.732)" fill="none" stroke="#2c3d60" stroke-miterlimit="10" stroke-width="0.5"/>
    <line id="Line_166" data-name="Line 166" x2="12.315" transform="translate(203.439 204.732)" fill="none" stroke="#2c3d60" stroke-miterlimit="10" stroke-width="0.5"/>
    <rect id="Rectangle_1955" data-name="Rectangle 1955" width="9.865" height="9.953" rx="4.933" transform="translate(142.116 209.118)" fill="#acdbc9" opacity="0.36"/>
    <rect id="Rectangle_1956" data-name="Rectangle 1956" width="9.865" height="9.953" rx="4.933" transform="translate(142.744 242.213)" fill="#acdbc9" opacity="0.36"/>
    <rect id="Rectangle_1957" data-name="Rectangle 1957" width="9.865" height="9.953" rx="4.933" transform="translate(160.964 242.213)" fill="#e99797" opacity="0.36"/>
    <rect id="Rectangle_1958" data-name="Rectangle 1958" width="9.865" height="9.953" rx="4.933" transform="translate(177.071 242.213)" fill="#acdbc9" opacity="0.36"/>
    <rect id="Rectangle_1959" data-name="Rectangle 1959" width="9.865" height="9.953" rx="4.933" transform="translate(159.28 209.118)" fill="#acdbc9" opacity="0.36"/>
    <rect id="Rectangle_1960" data-name="Rectangle 1960" width="9.865" height="9.953" rx="4.933" transform="translate(177.071 209.118)" fill="#acdbc9" opacity="0.36"/>
    <rect id="Rectangle_1961" data-name="Rectangle 1961" width="9.865" height="9.953" rx="4.933" transform="translate(159.28 224.918)" fill="#acdbc9" opacity="0.36"/>
    <rect id="Rectangle_1962" data-name="Rectangle 1962" width="9.865" height="9.953" rx="4.933" transform="translate(177.071 224.918)" fill="#acdbc9" opacity="0.36"/>
    <rect id="Rectangle_1963" data-name="Rectangle 1963" width="9.865" height="9.953" rx="4.933" transform="translate(194.235 209.118)" fill="#acdbc9" opacity="0.36"/>
    <path id="Path_7110" data-name="Path 7110" d="M118.924,541.92h37.134a8,8,0,0,1,7.964,8.035v7.27a4.722,4.722,0,0,1-4.7,4.742H117.438a5.382,5.382,0,0,1-5.358-5.406v-7.737A6.875,6.875,0,0,1,118.924,541.92Z" transform="translate(0 -319.318)" fill="#2c3d60"/>
    <path id="Path_7111" data-name="Path 7111" d="M160.438,543.42H121.072a5.758,5.758,0,0,0-5.732,5.783v6.385a6.278,6.278,0,0,0,6.25,6.306h37.284c2.37,1.818,5.6,4.63,5.6,4.63v-6.71h0a4.3,4.3,0,0,0,1.885-3.564v-6.857A5.949,5.949,0,0,0,160.438,543.42Z" transform="translate(-2.756 -320.584)" fill="#e99797" stroke="#2c3d60" stroke-miterlimit="10" stroke-width="0.5"/>
    <path id="Path_7112" data-name="Path 7112" d="M390.92,583.629l-.438-.5a1.6,1.6,0,0,1-.393-1.032l-.023-1.695a2.216,2.216,0,0,0-1.884-2.18l-.009-.656a.3.3,0,0,0-.09-.213.292.292,0,0,0-.215-.083h0a.293.293,0,0,0-.209.092.3.3,0,0,0-.081.216l.008.644a2.22,2.22,0,0,0-1.891,2.242l.021,1.625a1.6,1.6,0,0,1-.317.978l-.479.639,2.228-.031a.96.96,0,0,0,.511.529.935.935,0,0,0,.979-.185.925.925,0,0,0,.233-.367Z" transform="translate(-232.84 -348.709)" fill="#fff"/>
    <text id="Subscribe_" data-name="Subscribe!" transform="translate(117.6 234.608)" fill="#fff" font-size="6" font-family="Helvetica-Bold, Helvetica" font-weight="700"><tspan x="0" y="0">Subscribe!</tspan></text>
    <ellipse id="Ellipse_626" data-name="Ellipse 626" cx="23.598" cy="23.808" rx="23.598" ry="23.808" transform="translate(184.883 216.03)" fill="#fff"/>
    <path id="Path_7113" data-name="Path 7113" d="M648.49,593.114l8.244,9.914,18.623-22.388" transform="translate(-453.442 -351.995)" fill="#fff"/>
    <ellipse id="Ellipse_627" data-name="Ellipse 627" cx="22.565" cy="23.385" rx="22.565" ry="23.385" transform="translate(184.883 216.875)" fill="#acdbc9"/>
    <path id="Path_7114" data-name="Path 7114" d="M645.62,596.873l7.881,9.737,17.807-21.99" transform="translate(-451.016 -355.354)" fill="#acdbc9"/>
    <ellipse id="Ellipse_628" data-name="Ellipse 628" cx="23.598" cy="23.808" rx="23.598" ry="23.808" transform="translate(184.883 216.03)" fill="none" stroke="#2c3d60" stroke-miterlimit="10" stroke-width="0.5"/>
    <ellipse id="Ellipse_629" data-name="Ellipse 629" cx="19.543" cy="19.717" rx="19.543" ry="19.717" transform="translate(188.939 220.121)" fill="#fff" stroke="#2c3d60" stroke-miterlimit="10" stroke-width="0.5"/>
    <ellipse id="Ellipse_630" data-name="Ellipse 630" cx="1.032" cy="1.041" rx="1.032" ry="1.041" transform="translate(207.408 222.836)" fill="#2c3d60"/>
    <ellipse id="Ellipse_631" data-name="Ellipse 631" cx="1.032" cy="1.041" rx="1.032" ry="1.041" transform="translate(207.408 255.034)" fill="#2c3d60"/>
    <ellipse id="Ellipse_632" data-name="Ellipse 632" cx="1.032" cy="1.041" rx="1.032" ry="1.041" transform="translate(223.325 239.229)" fill="#2c3d60"/>
    <ellipse id="Ellipse_633" data-name="Ellipse 633" cx="1.927" cy="1.944" rx="1.927" ry="1.944" transform="translate(206.513 238.326)" fill="#2c3d60"/>
    <ellipse id="Ellipse_634" data-name="Ellipse 634" cx="1.032" cy="1.041" rx="1.032" ry="1.041" transform="translate(191.574 239.229)" fill="#2c3d60"/>
    <line id="Line_167" data-name="Line 167" x2="14.661" transform="translate(204.895 240.27)" fill="none" stroke="#2c3d60" stroke-miterlimit="10" stroke-width="0.5"/>
    <line id="Line_168" data-name="Line 168" y2="16.566" transform="translate(208.44 226.661)" fill="none" stroke="#2c3d60" stroke-miterlimit="10" stroke-width="0.5"/>
  </g>
</svg>
