<svg id="_Trailing_icon_1" data-name="ðŸ“Trailing icon 1" xmlns="http://www.w3.org/2000/svg" width="32" height="32" viewBox="0 0 32 32">
  <path id="Path_595" data-name="Path 595" d="M16,0A16,16,0,1,1,0,16,16,16,0,0,1,16,0Z" fill="#fff"/>
  <rect id="Boundary" width="24" height="24" transform="translate(4 4)" fill="none"/>
  <g id="_Color" data-name=" â†³Color" transform="translate(8 6)" fill="#5f7096" stroke-miterlimit="10">
    <path d="M 8.000104904174805 19.00030136108398 C 7.348214149475098 19.00030136108398 6.792147636413574 18.5820484161377 6.58588981628418 17.99960136413574 L 9.41431999206543 17.99960136413574 C 9.208062171936035 18.5820484161377 8.651995658874512 19.00030136108398 8.000104904174805 19.00030136108398 Z M 15.50020503997803 15.99970054626465 L 0.5000048875808716 15.99970054626465 L 0.5000048875808716 15.70690059661865 L 2.353354930877686 13.85355091094971 L 2.499804973602295 13.70711040496826 L 2.499804973602295 13.50000095367432 L 2.499804973602295 8.499600410461426 C 2.499804973602295 7.057930469512939 2.875054836273193 5.752340793609619 3.584994792938232 4.723980903625488 C 4.308244705200195 3.67633056640625 5.356044769287109 2.964800596237183 6.615134716033936 2.666320562362671 L 6.999804973602295 2.575130701065063 L 6.999804973602295 2.179800748825073 L 6.999804973602295 1.500300645828247 C 6.999804973602295 0.9487307071685791 7.448534965515137 0.5000006556510925 8.000104904174805 0.5000006556510925 C 8.551674842834473 0.5000006556510925 9.000405311584473 0.9487307071685791 9.000405311584473 1.500300645828247 L 9.000405311584473 2.179800748825073 L 9.000405311584473 2.574780702590942 L 9.384654998779297 2.666220664978027 C 10.63921451568604 2.964760780334473 11.68579483032227 3.677650690078735 12.41124534606934 4.727820873260498 C 13.1237850189209 5.759270668029785 13.50040531158447 7.063530445098877 13.50040531158447 8.499600410461426 L 13.50040531158447 13.50000095367432 L 13.50040531158447 13.70711040496826 L 13.64685535430908 13.85355091094971 L 15.50020503997803 15.70690059661865 L 15.50020503997803 15.99970054626465 Z" stroke="none"/>
    <path d="M 14.5858850479126 15.49970054626465 L 13.29329490661621 14.20711040496826 L 13.00040531158447 13.91421031951904 L 13.00040531158447 13.50000095367432 L 13.00040531158447 8.499600410461426 C 13.00040531158447 7.165530681610107 12.6544246673584 5.959540843963623 11.99985504150391 5.01201057434082 C 11.34573459625244 4.065080642700195 10.40138530731201 3.422120571136475 9.268904685974121 3.152640581130981 L 8.500405311584473 2.969760656356812 L 8.500405311584473 2.179800748825073 L 8.500405311584473 1.500300645828247 C 8.500405311584473 1.224430680274963 8.275975227355957 1.000000715255737 8.000104904174805 1.000000715255737 C 7.724235057830811 1.000000715255737 7.499804973602295 1.224430680274963 7.499804973602295 1.500300645828247 L 7.499804973602295 2.179800748825073 L 7.499804973602295 2.970450639724731 L 6.730474948883057 3.152830600738525 C 5.593704700469971 3.422320604324341 4.648294925689697 4.063840866088867 3.996464967727661 5.008050918579102 C 3.344444990158081 5.952510833740234 2.999804973602295 7.159870624542236 2.999804973602295 8.499600410461426 L 2.999804973602295 13.50000095367432 L 2.999804973602295 13.91421031951904 L 2.706914901733398 14.20711040496826 L 1.414324879646301 15.49970054626465 L 14.5858850479126 15.49970054626465 M 8.000104904174805 19.50030136108398 C 6.897414684295654 19.50030136108398 6.000304698944092 18.60279083251953 6.000304698944092 17.49960136413574 L 9.999904632568359 17.49960136413574 C 9.999904632568359 18.60324096679688 9.102344512939453 19.50030136108398 8.000104904174805 19.50030136108398 Z M 16.00020408630371 16.49970054626465 L 15.99920463562012 16.49970054626465 L 4.904174602415878e-06 16.49970054626465 L 4.904174602415878e-06 15.49980068206787 L 1.999804854393005 13.50000095367432 L 1.999804854393005 8.499600410461426 C 1.999804854393005 6.956000804901123 2.405664920806885 5.552180767059326 3.173524856567383 4.439920902252197 C 3.968184947967529 3.288820743560791 5.11839485168457 2.507280588150024 6.499804973602295 2.179800748825073 L 6.499804973602295 1.500300645828247 C 6.499804973602295 0.67303067445755 7.172834873199463 6.805419729971618e-07 8.000104904174805 6.805419729971618e-07 C 8.827374458312988 6.805419729971618e-07 9.500405311584473 0.67303067445755 9.500405311584473 1.500300645828247 L 9.500405311584473 2.179800748825073 C 10.87700462341309 2.507380723953247 12.02608489990234 3.29054069519043 12.82263469696045 4.44364070892334 C 13.59313488006592 5.559000492095947 14.00040531158447 6.961530685424805 14.00040531158447 8.499600410461426 L 14.00040531158447 13.50000095367432 L 16.00020408630371 15.49980068206787 L 16.00020408630371 16.49870109558105 L 16.00020408630371 16.49970054626465 Z" stroke="none" fill="#2c3d63"/>
  </g>
</svg>
